<svg id="Capa_1" enable-background="new 0 0 512 512" height="512" viewBox="0 0 512 512" width="512" xmlns="http://www.w3.org/2000/svg"><g><path d="m431.881 315.227h-195.897l20.016 196.773 243.491-154.01z" fill="#009986"/><path d="m80.119 315.227-67.61 42.763 243.491 154.01v-196.773z" fill="#00cc76"/><path d="m371.808 191.702h-135.824l20.016 234.771 243.491-154.01z" fill="#00cc76"/><path d="m140.192 191.702-127.683 80.761 243.491 154.01v-234.771z" fill="#a5e887"/><path d="m348.495 38.313c-25.542-25.542-59.018-38.313-92.495-38.313l-20.016 130.808 20.016 184.99 92.495-92.495c51.084-51.084 51.084-133.907 0-184.99z" fill="#ff415b"/><path d="m163.505 38.313c-51.084 51.084-51.084 133.906 0 184.99l92.495 92.495v-315.798c-33.477 0-66.953 12.771-92.495 38.313z" fill="#ff7c48"/><path d="m256 49.094-20.016 81.713 20.016 81.714c45.057 0 81.714-36.656 81.714-81.713s-36.657-81.714-81.714-81.714z" fill="#e50058"/><path d="m174.286 130.808c0 45.057 36.657 81.713 81.714 81.713v-163.427c-45.057 0-81.714 36.657-81.714 81.714z" fill="#ff415b"/><path d="m256 79.094-20.016 51.713 20.016 51.714c28.515 0 51.714-23.198 51.714-51.713s-23.199-51.714-51.714-51.714z" fill="#ebebf0"/><path d="m204.286 130.808c0 28.515 23.199 51.713 51.714 51.713v-103.427c-28.515 0-51.714 23.199-51.714 51.714z" fill="#fff5f5"/></g></svg>